#Comment line ignore any data following # character 
#Hierarchical Translation and Rotation (.htr) file 
[Header]	
#Header keywords are followed by a single value 
FileType HTR		#Single word string
DataType HTRS		#Translation followed by rotation and scale data
FileVersion 1		#integer
NumSegments 84		#integer
NumFrames 2		#integer
DataFrameRate 30		#integer, data frame rate in this file
EulerRotationOrder ZYX
CalibrationUnits mm
RotationUnits Degrees
GlobalAxisofGravity Y
BoneLengthAxis Y
ScaleFactor 1.00
[SegmentNames&Hierarchy]
#CHILD	PARENT
MASTER GLOBAL
root MASTER
chest root
L_mid_tent01 root
R_mid_tent01 root
spine01 root
Bip01_Neck chest
L_humerus chest
R_humerus chest
weapon_bone chest
Bip01_Head Bip01_Neck
eye_left_bone Bip01_Head
eye_right_bone Bip01_Head
L_forearm L_humerus
L_front_hand L_forearm
L_weapon_bone L_forearm
L_front_hand01_01 L_front_hand
L_front_hand02_01 L_front_hand
L_front_hand03_01 L_front_hand
L_front_hand01_02 L_front_hand01_01
L_front_hand02_02 L_front_hand02_01
L_front_hand03_02 L_front_hand03_01
R_forearm R_humerus
R_front_hand R_forearm
R_weapon_bone R_forearm
R_front_hand01_01 R_front_hand
R_front_hand02_01 R_front_hand
R_front_hand03_01 R_front_hand
R_front_hand01_02 R_front_hand01_01
R_front_hand02_02 R_front_hand02_01
R_front_hand03_02 R_front_hand03_01
null_rope01_connect L_mid_tent01
Rope1_Seg01 null_rope01_connect
Rope1_Seg02 Rope1_Seg01
Rope1_Seg03 Rope1_Seg02
Rope1_Seg04 Rope1_Seg03
Rope1_Seg05 Rope1_Seg04
Rope1_Seg06 Rope1_Seg05
Rope1_Seg07 Rope1_Seg06
Rope1_Seg09 Rope1_Seg07
L_mid_hand01 Rope1_Seg09
L_mid_hand02 Rope1_Seg09
L_mid_hand03 Rope1_Seg09
null_rope02_connect R_mid_tent01
Rope2_Seg01 null_rope02_connect
Rope2_Seg02 Rope2_Seg01
Rope2_Seg03 Rope2_Seg02
Rope2_Seg04 Rope2_Seg03
Rope2_Seg05 Rope2_Seg04
Rope2_Seg06 Rope2_Seg05
Rope2_Seg07 Rope2_Seg06
Rope2_Seg09 Rope2_Seg07
R_mid_hand01 Rope2_Seg09
R_mid_hand02 Rope2_Seg09
R_mid_hand03 Rope2_Seg09
spine02 spine01
spine03 spine02
pelvis spine03
null_rope03_connect pelvis
null_rope04_connect pelvis
Rope3_Seg01 null_rope03_connect
Rope3_Seg02 Rope3_Seg01
Rope3_Seg03 Rope3_Seg02
Rope3_Seg04 Rope3_Seg03
Rope3_Seg05 Rope3_Seg04
Rope3_Seg06 Rope3_Seg05
Rope3_Seg07 Rope3_Seg06
Rope3_Seg08 Rope3_Seg07
Rope3_Seg09 Rope3_Seg08
R_rear_hand01 Rope3_Seg09
R_rear_hand02 Rope3_Seg09
R_rear_hand03 Rope3_Seg09
Rope4_Seg01 null_rope04_connect
Rope4_Seg02 Rope4_Seg01
Rope4_Seg03 Rope4_Seg02
Rope4_Seg04 Rope4_Seg03
Rope4_Seg05 Rope4_Seg04
Rope4_Seg06 Rope4_Seg05
Rope4_Seg07 Rope4_Seg06
Rope4_Seg08 Rope4_Seg07
Rope4_Seg09 Rope4_Seg08
L_rear_hand01 Rope4_Seg09
L_rear_hand02 Rope4_Seg09
L_rear_hand03 Rope4_Seg09
[BasePosition]
#SegmentName Tx, Ty, Tz, Rx, Ry, Rz, BoneLength
MASTER 0.000000 0.000000 0.000000 -90.000000 0.000000 0.000000 10.000000 
root 0.000000 0.000000 0.000000 0.000000 0.000000 0.000000 10.000000 
chest 0.000000 0.000000 0.000000 0.000000 0.000000 0.000000 10.000000 
L_mid_tent01 0.000000 0.000000 0.000000 0.000000 0.000000 0.000000 10.000000 
R_mid_tent01 0.000000 0.000000 0.000000 0.000000 0.000000 0.000000 10.000000 
spine01 0.000000 0.000000 0.000000 0.000000 0.000000 0.000000 10.000000 
Bip01_Neck 0.000000 0.000000 0.000000 0.000000 0.000000 0.000000 10.000000 
L_humerus 0.000000 0.000000 0.000000 0.000000 0.000000 0.000000 10.000000 
R_humerus 0.000000 0.000000 0.000000 0.000000 0.000000 0.000000 10.000000 
weapon_bone 0.000000 0.000000 0.000000 0.000000 0.000000 0.000000 10.000000 
Bip01_Head 0.000000 0.000000 0.000000 0.000000 0.000000 0.000000 10.000000 
eye_left_bone 0.000000 0.000000 0.000000 0.000000 0.000000 0.000000 10.000000 
eye_right_bone 0.000000 0.000000 0.000000 0.000000 0.000000 0.000000 10.000000 
L_forearm 0.000000 0.000000 0.000000 0.000000 0.000000 0.000000 10.000000 
L_front_hand 0.000000 0.000000 0.000000 0.000000 0.000000 0.000000 10.000000 
L_weapon_bone 0.000000 0.000000 0.000000 0.000000 0.000000 0.000000 10.000000 
L_front_hand01_01 0.000000 0.000000 0.000000 0.000000 0.000000 0.000000 10.000000 
L_front_hand02_01 0.000000 0.000000 0.000000 0.000000 0.000000 0.000000 10.000000 
L_front_hand03_01 0.000000 0.000000 0.000000 0.000000 0.000000 0.000000 10.000000 
L_front_hand01_02 0.000000 0.000000 0.000000 0.000000 0.000000 0.000000 10.000000 
L_front_hand02_02 0.000000 0.000000 0.000000 0.000000 0.000000 0.000000 10.000000 
L_front_hand03_02 0.000000 0.000000 0.000000 0.000000 0.000000 0.000000 10.000000 
R_forearm 0.000000 0.000000 0.000000 0.000000 0.000000 0.000000 10.000000 
R_front_hand 0.000000 0.000000 0.000000 0.000000 0.000000 0.000000 10.000000 
R_weapon_bone 0.000000 0.000000 0.000000 0.000000 0.000000 0.000000 10.000000 
R_front_hand01_01 0.000000 0.000000 0.000000 0.000000 0.000000 0.000000 10.000000 
R_front_hand02_01 0.000000 0.000000 0.000000 0.000000 0.000000 0.000000 10.000000 
R_front_hand03_01 0.000000 0.000000 0.000000 0.000000 0.000000 0.000000 10.000000 
R_front_hand01_02 0.000000 0.000000 0.000000 0.000000 0.000000 0.000000 10.000000 
R_front_hand02_02 0.000000 0.000000 0.000000 0.000000 0.000000 0.000000 10.000000 
R_front_hand03_02 0.000000 0.000000 0.000000 0.000000 0.000000 0.000000 10.000000 
null_rope01_connect 0.000000 0.000000 0.000000 0.000000 0.000000 0.000000 10.000000 
Rope1_Seg01 0.000000 0.000000 0.000000 0.000000 0.000000 0.000000 10.000000 
Rope1_Seg02 0.000000 0.000000 0.000000 0.000000 0.000000 0.000000 10.000000 
Rope1_Seg03 0.000000 0.000000 0.000000 0.000000 0.000000 0.000000 10.000000 
Rope1_Seg04 0.000000 0.000000 0.000000 0.000000 0.000000 0.000000 10.000000 
Rope1_Seg05 0.000000 0.000000 0.000000 0.000000 0.000000 0.000000 10.000000 
Rope1_Seg06 0.000000 0.000000 0.000000 0.000000 0.000000 0.000000 10.000000 
Rope1_Seg07 0.000000 0.000000 0.000000 0.000000 0.000000 0.000000 10.000000 
Rope1_Seg09 0.000000 0.000000 0.000000 0.000000 0.000000 0.000000 10.000000 
L_mid_hand01 0.000000 0.000000 0.000000 0.000000 0.000000 0.000000 10.000000 
L_mid_hand02 0.000000 0.000000 0.000000 0.000000 0.000000 0.000000 10.000000 
L_mid_hand03 0.000000 0.000000 0.000000 0.000000 0.000000 0.000000 10.000000 
null_rope02_connect 0.000000 0.000000 0.000000 0.000000 0.000000 0.000000 10.000000 
Rope2_Seg01 0.000000 0.000000 0.000000 0.000000 0.000000 0.000000 10.000000 
Rope2_Seg02 0.000000 0.000000 0.000000 0.000000 0.000000 0.000000 10.000000 
Rope2_Seg03 0.000000 0.000000 0.000000 0.000000 0.000000 0.000000 10.000000 
Rope2_Seg04 0.000000 0.000000 0.000000 0.000000 0.000000 0.000000 10.000000 
Rope2_Seg05 0.000000 0.000000 0.000000 0.000000 0.000000 0.000000 10.000000 
Rope2_Seg06 0.000000 0.000000 0.000000 0.000000 0.000000 0.000000 10.000000 
Rope2_Seg07 0.000000 0.000000 0.000000 0.000000 0.000000 0.000000 10.000000 
Rope2_Seg09 0.000000 0.000000 0.000000 0.000000 0.000000 0.000000 10.000000 
R_mid_hand01 0.000000 0.000000 0.000000 0.000000 0.000000 0.000000 10.000000 
R_mid_hand02 0.000000 0.000000 0.000000 0.000000 0.000000 0.000000 10.000000 
R_mid_hand03 0.000000 0.000000 0.000000 0.000000 0.000000 0.000000 10.000000 
spine02 0.000000 0.000000 0.000000 0.000000 0.000000 0.000000 10.000000 
spine03 0.000000 0.000000 0.000000 0.000000 0.000000 0.000000 10.000000 
pelvis 0.000000 0.000000 0.000000 0.000000 0.000000 0.000000 10.000000 
null_rope03_connect 0.000000 0.000000 0.000000 0.000000 0.000000 0.000000 10.000000 
null_rope04_connect 0.000000 0.000000 0.000000 0.000000 0.000000 0.000000 10.000000 
Rope3_Seg01 0.000000 0.000000 0.000000 0.000000 0.000000 0.000000 10.000000 
Rope3_Seg02 0.000000 0.000000 0.000000 0.000000 0.000000 0.000000 10.000000 
Rope3_Seg03 0.000000 0.000000 0.000000 0.000000 0.000000 0.000000 10.000000 
Rope3_Seg04 0.000000 0.000000 0.000000 0.000000 0.000000 0.000000 10.000000 
Rope3_Seg05 0.000000 0.000000 0.000000 0.000000 0.000000 0.000000 10.000000 
Rope3_Seg06 0.000000 0.000000 0.000000 0.000000 0.000000 0.000000 10.000000 
Rope3_Seg07 0.000000 0.000000 0.000000 0.000000 0.000000 0.000000 10.000000 
Rope3_Seg08 0.000000 0.000000 0.000000 0.000000 0.000000 0.000000 10.000000 
Rope3_Seg09 0.000000 0.000000 0.000000 0.000000 0.000000 0.000000 10.000000 
R_rear_hand01 0.000000 0.000000 0.000000 0.000000 0.000000 0.000000 10.000000 
R_rear_hand02 0.000000 0.000000 0.000000 0.000000 0.000000 0.000000 10.000000 
R_rear_hand03 0.000000 0.000000 0.000000 0.000000 0.000000 0.000000 10.000000 
Rope4_Seg01 0.000000 0.000000 0.000000 0.000000 0.000000 0.000000 10.000000 
Rope4_Seg02 0.000000 0.000000 0.000000 0.000000 0.000000 0.000000 10.000000 
Rope4_Seg03 0.000000 0.000000 0.000000 0.000000 0.000000 0.000000 10.000000 
Rope4_Seg04 0.000000 0.000000 0.000000 0.000000 0.000000 0.000000 10.000000 
Rope4_Seg05 0.000000 0.000000 0.000000 0.000000 0.000000 0.000000 10.000000 
Rope4_Seg06 0.000000 0.000000 0.000000 0.000000 0.000000 0.000000 10.000000 
Rope4_Seg07 0.000000 0.000000 0.000000 0.000000 0.000000 0.000000 10.000000 
Rope4_Seg08 0.000000 0.000000 0.000000 0.000000 0.000000 0.000000 10.000000 
Rope4_Seg09 0.000000 0.000000 0.000000 0.000000 0.000000 0.000000 10.000000 
L_rear_hand01 0.000000 0.000000 0.000000 0.000000 0.000000 0.000000 10.000000 
L_rear_hand02 0.000000 0.000000 0.000000 0.000000 0.000000 0.000000 10.000000 
L_rear_hand03 0.000000 0.000000 0.000000 0.000000 0.000000 0.000000 10.000000 
#Beginning of Data. Separated by tabs
#Fr	Tx	Ty	Tz	Rx	Ry	Rz	SF
[MASTER]
3 -0.000036 200.059280 0.000009 0.001660 0.001660 0.001660 200.059280
4 -0.000056 300.089081 0.000013 0.001660 0.001660 0.001660 300.089081
[root]
3 -11.340820 2.609158 1438.662109 -91.728302 -11.583905 -89.471634 1438.709106
4 -9.952709 -0.379950 1432.770508 -91.727989 -11.583608 -89.471619 1432.805054
[chest]
3 -84.512650 -34.090519 0.000000 -2.166010 -0.075678 166.399399 91.129311
4 -84.512650 -34.090519 0.000000 -2.168638 -0.102779 165.776993 91.129311
[L_mid_tent01]
3 27.299084 22.179245 -249.918686 -20.194962 12.869794 14.305368 252.381683
4 27.299086 22.179237 -249.918686 -19.953667 13.287675 14.970889 252.381683
[R_mid_tent01]
3 23.228794 24.509907 226.238495 -165.810562 -16.025991 25.015282 228.744751
4 23.228794 24.509907 226.238495 -166.119690 -14.964496 25.521553 228.744751
[spine01]
3 -0.361383 -0.195265 0.000000 -0.000001 -0.000007 22.052340 0.410763
4 -0.361383 -0.195265 0.000000 -0.000001 -0.000007 22.052340 0.410763
[Bip01_Neck]
3 165.484543 71.581718 0.000119 176.643677 -1.657967 43.431911 180.302734
4 165.484543 71.581718 0.000119 176.643677 -1.657967 43.431911 180.302734
[L_humerus]
3 -13.983130 -135.272980 -120.471481 -7.114699 75.812614 81.662560 181.680161
4 -13.983130 -135.272980 -120.471481 -7.774444 77.940956 80.209991 181.680161
[R_humerus]
3 -13.983309 -135.273102 125.287651 38.105446 -74.893723 57.054783 184.909012
4 -13.983309 -135.273102 125.287651 42.290005 -76.172974 52.734520 184.909012
[weapon_bone]
3 235.964890 -300.705902 0.000000 0.000000 -89.951546 -128.212341 382.234833
4 235.964890 -300.705902 0.000000 0.000000 -89.951546 -128.212341 382.234833
[Bip01_Head]
3 213.438477 185.731354 11.571902 4.965356 3.801409 -43.882862 283.171387
4 213.435623 185.739243 11.469360 4.968390 5.247288 -43.853752 283.170227
[eye_left_bone]
3 -24.626970 125.451866 -64.772606 0.000000 -90.000000 -99.840431 143.318359
4 -24.626970 125.451866 -64.772606 0.000000 -90.000000 -99.840431 143.318359
[eye_right_bone]
3 -24.626970 125.451866 64.327362 0.000000 -89.980217 80.156380 143.117676
4 -24.626970 125.451866 64.327362 0.000000 -89.965736 80.156380 143.117676
[L_forearm]
3 322.776093 0.000000 -0.000119 0.000396 -0.002314 -109.419975 322.776093
4 322.776093 0.000000 -0.000119 0.000396 -0.002314 -109.419975 322.776093
[L_front_hand]
3 241.149185 -0.042021 -3.300071 -178.667953 -1.835447 -27.422350 241.171753
4 241.149185 -0.042021 -3.300071 -178.667953 -1.835447 -27.422350 241.171753
[L_weapon_bone]
3 156.183838 0.000000 0.000000 0.000014 0.000007 0.000001 156.183838
4 156.183838 0.000000 0.000000 0.000014 0.000007 0.000001 156.183838
[L_front_hand01_01]
3 86.095154 20.947098 -0.655860 -0.366594 -0.477154 75.385574 88.609184
4 86.095154 20.947098 -0.655860 -0.365371 -0.478091 75.092094 88.609184
[L_front_hand02_01]
3 86.935165 -11.437475 24.513514 154.399796 -59.883835 -61.369587 91.046425
4 86.935165 -11.437475 24.513514 153.946487 -59.758568 -60.843468 91.046425
[L_front_hand03_01]
3 86.637497 -14.123976 -20.424902 -153.913849 58.118122 -62.702866 90.126129
4 86.637497 -14.123976 -20.424902 -153.504349 57.989803 -62.217342 90.126129
[L_front_hand01_02]
3 71.020905 -0.000179 0.000030 0.000320 -0.002325 -105.686226 71.020905
4 71.020905 -0.000179 0.000030 0.000320 -0.002325 -105.648979 71.020905
[L_front_hand02_02]
3 71.020927 -0.000119 0.000060 0.000320 -0.002325 -105.686226 71.020927
4 71.020927 -0.000119 0.000060 0.000320 -0.002325 -105.648979 71.020927
[L_front_hand03_02]
3 71.020905 -0.000060 0.000060 0.000320 -0.002325 -105.686226 71.020905
4 71.020905 -0.000060 0.000060 0.000320 -0.002325 -105.648979 71.020905
[R_forearm]
3 322.776428 -0.000060 0.000030 0.202103 0.065158 -108.062805 322.776428
4 322.776428 -0.000060 0.000030 0.202103 0.065158 -108.062805 322.776428
[R_front_hand]
3 238.847015 -0.006795 2.210259 -2.635298 -10.645462 -26.312506 238.857239
4 238.847015 -0.006795 2.210259 -2.635298 -10.645461 -26.312506 238.857239
[R_weapon_bone]
3 155.664093 0.002503 -0.000030 0.003487 0.001180 -90.988930 155.664078
4 155.664093 0.002503 -0.000030 0.003487 0.001180 -90.988930 155.664078
[R_front_hand01_01]
3 87.624611 14.231146 22.918642 -154.633499 -59.950619 61.746044 91.683487
4 87.624611 14.231146 22.918642 -154.238968 -59.839840 61.284889 91.683487
[R_front_hand02_01]
3 89.356956 14.367283 -19.491137 154.602661 58.302849 63.744389 92.579636
4 89.356956 14.367283 -19.491137 154.231567 58.196690 63.311184 92.579636
[R_front_hand03_01]
3 87.286232 -22.307278 -0.143439 0.162155 -0.423168 -75.767921 90.091743
4 87.286232 -22.307278 -0.143439 0.161230 -0.423521 -75.517479 90.091743
[R_front_hand01_02]
3 71.020905 0.000060 0.000119 0.002323 -0.000334 106.381714 71.020905
4 71.020905 0.000060 0.000119 0.002323 -0.000334 106.381714 71.020905
[R_front_hand02_02]
3 71.020844 -0.000030 -0.000119 0.002323 -0.000334 106.381714 71.020836
4 71.020844 -0.000030 -0.000119 0.002323 -0.000334 106.381714 71.020836
[R_front_hand03_02]
3 71.020905 0.000000 0.000030 0.002323 -0.000334 106.381714 71.020905
4 71.020905 0.000000 0.000030 0.002323 -0.000334 106.381714 71.020905
[null_rope01_connect]
3 328.732483 0.000000 -0.000238 -153.574417 -64.775772 -121.239792 328.732483
4 328.732483 0.000000 -0.000238 -153.120941 -64.762146 -122.401665 328.732483
[Rope1_Seg01]
3 -0.000004 0.000034 0.000015 75.617195 -0.589673 -106.762596 0.000038
4 -0.000006 0.000032 0.000023 86.832504 -2.524524 -100.845070 0.000040
[Rope1_Seg02]
3 139.999863 -0.000179 0.000000 1.170878 2.202946 -1.454981 139.999863
4 139.999863 -0.000179 0.000000 -2.335173 0.318488 -2.419015 139.999863
[Rope1_Seg03]
3 139.999924 0.000060 -0.000060 -1.320646 0.671674 -1.954936 139.999924
4 139.999924 0.000060 -0.000060 -4.171690 -1.318548 -2.405353 139.999924
[Rope1_Seg04]
3 139.999924 -0.000060 -0.000119 1.792437 2.606045 -1.095524 139.999924
4 139.999924 -0.000060 -0.000119 -0.437353 1.374279 -1.957379 139.999924
[Rope1_Seg05]
3 139.999832 0.000119 -0.000060 7.149212 5.829392 1.393228 139.999832
4 139.999832 0.000119 -0.000060 6.216444 6.100348 0.298514 139.999832
[Rope1_Seg06]
3 139.999954 0.000119 -0.000060 2.838840 2.779955 0.293246 139.999954
4 139.999954 0.000119 -0.000060 2.312368 2.771069 -0.194761 139.999954
[Rope1_Seg07]
3 139.999985 0.000060 0.000000 1.327294 1.470620 0.003858 139.999985
4 139.999985 0.000060 0.000000 1.012649 1.398585 -0.243187 139.999985
[Rope1_Seg09]
3 121.602913 0.000119 -0.000089 -89.793175 -1.359789 0.847147 121.602913
4 121.602913 0.000119 -0.000089 -89.793175 -1.359789 0.847147 121.602913
[L_mid_hand01]
3 103.859421 1.038730 8.195221 124.165955 -63.799015 -31.873352 104.187431
4 103.859421 1.038730 8.195221 119.391953 -59.659550 -26.459229 104.187431
[L_mid_hand02]
3 105.572853 -4.139662 -10.864139 -164.626358 42.318848 -67.191460 106.211075
4 105.572853 -4.139662 -10.864139 -160.502609 40.861904 -60.979630 106.211075
[L_mid_hand03]
3 104.641464 17.579376 -3.913581 -7.501869 17.251593 69.949562 106.179977
4 104.641464 17.579376 -3.913581 -8.971709 16.553080 64.913109 106.179977
[null_rope02_connect]
3 328.732849 0.000179 -0.000119 -142.919662 69.991234 -37.281616 328.732849
4 328.732849 0.000179 -0.000119 -144.618759 71.003952 -38.666821 328.732849
[Rope2_Seg01]
3 0.000095 0.000153 0.000008 15.663315 6.079720 -46.416363 0.000180
4 0.000095 0.000153 0.000011 5.182759 5.022097 -51.033337 0.000180
[Rope2_Seg02]
3 139.999741 -0.000060 -0.000119 -12.244899 0.460830 -7.559046 139.999756
4 139.999741 -0.000060 -0.000119 -8.309568 2.811315 -6.445614 139.999756
[Rope2_Seg03]
3 140.000107 0.000030 0.000000 6.919820 4.252200 2.752999 140.000107
4 140.000107 0.000030 0.000000 8.989206 4.993537 4.154097 140.000107
[Rope2_Seg04]
3 139.999802 0.000000 -0.000060 -8.842253 -0.939697 -6.194054 139.999802
4 139.999802 0.000000 -0.000060 -10.039313 -1.356566 -7.466383 139.999802
[Rope2_Seg05]
3 139.999985 -0.000060 0.000119 -28.806292 -6.910393 -27.087208 139.999985
4 139.999985 -0.000060 0.000119 -25.457207 -5.737343 -25.264318 139.999985
[Rope2_Seg06]
3 139.999893 -0.000030 -0.000119 -11.104574 5.024975 -18.697893 139.999893
4 139.999893 -0.000030 -0.000119 -9.543332 3.741894 -15.665365 139.999893
[Rope2_Seg07]
3 139.999893 0.000060 -0.000060 -2.763790 3.633305 -7.292445 139.999893
4 139.999893 0.000060 -0.000060 -2.882575 2.982113 -6.827629 139.999893
[Rope2_Seg09]
3 121.338966 0.000089 -0.000060 33.793236 -1.359788 -0.847141 121.338966
4 121.338966 0.000089 -0.000060 33.793236 -1.359788 -0.847141 121.338966
[R_mid_hand01]
3 104.680779 11.144459 -10.335981 -18.237753 44.607113 67.592667 105.778534
4 104.680779 11.144459 -10.335981 -20.399712 43.830379 64.493820 105.778534
[R_mid_hand02]
3 104.070427 2.443552 8.231699 52.237907 -66.108360 35.844143 104.424065
4 104.070427 2.443552 8.231699 55.242668 -64.206009 32.532043 104.424065
[R_mid_hand03]
3 106.028137 -11.221827 -5.996406 -176.510086 15.433296 -74.380737 106.788818
4 106.028137 -11.221827 -5.996406 -175.861618 15.275426 -71.940247 106.788818
[spine02]
3 129.756927 0.001550 0.000119 0.360061 -4.044797 -12.915058 129.756927
4 129.756927 0.001550 0.000119 0.360061 -4.044797 -12.915058 129.756927
[spine03]
3 78.614075 0.081743 -4.899005 1.896495 3.831288 16.473045 78.766609
4 78.614067 0.081743 -4.899004 1.896495 3.831288 16.473045 78.766602
[pelvis]
3 169.435242 0.051022 0.000000 -0.060465 -0.180225 14.087929 169.435257
4 169.435242 0.051022 0.000000 -0.060465 -0.180225 14.087930 169.435257
[null_rope03_connect]
3 -1.257226 -2.466202 137.391083 156.259537 -89.381660 -94.360199 137.418976
4 -1.257226 -2.466202 137.391083 156.224579 -89.381660 -94.325218 137.418976
[null_rope04_connect]
3 -1.259640 -2.480268 -137.844437 156.259537 -89.381660 -94.360199 137.872513
4 -1.259640 -2.480268 -137.844437 156.224579 -89.381660 -94.325218 137.872513
[Rope3_Seg01]
3 -0.000020 -0.000015 0.000000 20.957518 26.497059 -72.052353 0.000025
4 -0.000021 -0.000023 0.000000 20.963301 23.821775 -70.526001 0.000031
[Rope3_Seg02]
3 139.999924 -0.000119 0.000060 0.097712 -0.324135 -0.735534 139.999924
4 139.999924 -0.000119 0.000060 0.455263 0.472765 -2.771313 139.999924
[Rope3_Seg03]
3 139.999924 -0.000119 0.000119 0.082096 -0.255100 -0.587064 139.999924
4 139.999924 -0.000119 0.000119 0.369863 0.588437 -2.474469 139.999924
[Rope3_Seg04]
3 139.999924 0.000119 0.000000 -0.067289 1.676099 3.404171 139.999924
4 139.999924 0.000119 0.000000 0.387978 2.683138 -0.192090 139.999924
[Rope3_Seg05]
3 139.999924 -0.000238 0.000060 0.293857 -1.558378 -3.291982 139.999924
4 139.999924 -0.000238 0.000060 0.343339 -1.391593 -4.088830 139.999924
[Rope3_Seg06]
3 139.999893 -0.000119 -0.000060 1.333278 -6.636263 -13.862071 139.999893
4 139.999893 -0.000119 -0.000060 0.964042 -6.786608 -9.335582 139.999893
[Rope3_Seg07]
3 139.999771 0.000060 -0.000119 0.741737 -5.538327 -11.252570 139.999771
4 139.999771 0.000060 -0.000119 0.968083 -5.694981 -7.841950 139.999771
[Rope3_Seg08]
3 139.999985 -0.000060 0.000000 0.348650 -3.105133 -6.215022 139.999985
4 139.999985 -0.000060 0.000000 0.703261 -3.379953 -4.810075 139.999985
[Rope3_Seg09]
3 90.185997 -0.000179 -0.000060 89.793228 -1.359877 -0.847183 90.185997
4 90.185997 -0.000179 -0.000060 89.793228 -1.359877 -0.847183 90.185997
[R_rear_hand01]
3 103.366196 -6.073594 -10.757982 -176.465668 24.425859 -70.909309 104.101845
4 103.366196 -6.073594 -10.757982 -175.114853 24.208797 -67.632149 104.101845
[R_rear_hand02]
3 100.509819 12.039542 -7.992327 -14.843726 36.213379 68.859123 101.543350
4 100.509819 12.039542 -7.992327 -16.923939 35.395069 65.303368 101.543350
[R_rear_hand03]
3 101.539970 5.215704 5.435467 73.787918 -69.202950 19.069901 101.819031
4 101.539970 5.215704 5.435467 75.730560 -66.314209 16.974052 101.819031
[Rope4_Seg01]
3 -0.000018 -0.000069 -0.000153 -97.689857 24.337276 -95.696213 0.000168
4 -0.000018 -0.000065 -0.000153 -97.041664 23.264517 -94.290283 0.000167
[Rope4_Seg02]
3 139.999985 0.000060 0.000119 0.068191 -3.193624 -0.079399 139.999985
4 139.999985 0.000060 0.000119 0.088505 -2.748316 -0.114246 139.999985
[Rope4_Seg03]
3 139.999924 0.000000 -0.000238 0.219764 -5.137632 -0.557723 139.999924
4 139.999924 0.000000 -0.000238 0.231031 -4.879834 -0.735868 139.999924
[Rope4_Seg04]
3 139.999985 0.000000 0.000119 1.931180 -18.049290 -4.227385 139.999985
4 139.999985 0.000000 0.000119 1.485514 -15.473782 -4.119273 139.999985
[Rope4_Seg05]
3 139.999802 -0.000060 -0.000119 0.587370 20.347109 6.678042 139.999802
4 139.999802 -0.000060 -0.000119 1.102420 21.166681 7.876371 139.999802
[Rope4_Seg06]
3 139.999924 0.000000 0.000060 3.262881 28.176416 8.922812 139.999924
4 139.999924 0.000000 0.000060 2.320636 23.050493 8.108813 139.999924
[Rope4_Seg07]
3 139.999802 0.000000 0.000000 1.024426 7.779149 2.208040 139.999802
4 139.999802 0.000000 0.000000 0.652762 6.566897 2.194184 139.999802
[Rope4_Seg08]
3 139.999924 0.000000 0.000119 -0.955530 3.725128 0.999882 139.999924
4 139.999924 0.000000 0.000119 -1.163541 3.371716 1.095595 139.999924
[Rope4_Seg09]
3 90.185791 0.000060 0.000060 -135.617828 2.228885 0.850567 90.185791
4 90.185791 0.000060 0.000060 -135.617828 2.228885 0.850567 90.185791
[L_rear_hand01]
3 101.696655 -8.392275 -7.654577 -18.919888 -34.466518 118.185951 102.329041
4 101.696655 -8.392275 -7.654577 -23.837845 -31.499460 127.199913 102.329041
[L_rear_hand02]
3 102.726799 -1.568258 5.773216 77.226944 63.386848 164.679077 102.900848
4 102.726799 -1.568258 5.773216 79.944244 55.427822 167.828537 102.900848
[L_rear_hand03]
3 104.552910 9.721220 -10.420293 -173.780411 -23.916803 -115.646591 105.519653
4 104.552910 9.721220 -10.420293 -170.300720 -22.790039 -124.406273 105.519653
